<?xml version="1.0" encoding="UTF-8" standalone="no"?>
<svg
   xmlns:dc="http://purl.org/dc/elements/1.1/"
   xmlns:cc="http://creativecommons.org/ns#"
   xmlns:rdf="http://www.w3.org/1999/02/22-rdf-syntax-ns#"
   xmlns:svg="http://www.w3.org/2000/svg"
   xmlns="http://www.w3.org/2000/svg"
   version="1.1"
   id="svg2"
   viewBox="0 0 12 11.999999"
   height="12"
   width="12">
  <defs
     id="defs4" />
  <metadata
     id="metadata7">
    <rdf:RDF>
      <cc:Work
         rdf:about="">
        <dc:format>image/svg+xml</dc:format>
        <dc:type
           rdf:resource="http://purl.org/dc/dcmitype/StillImage" />
        <dc:title></dc:title>
      </cc:Work>
    </rdf:RDF>
  </metadata>
  <g
     transform="translate(-72.088666,-1434.8647)"
     id="layer1" />
  <path
     style="fill:#2aff80;fill-opacity:1"
     id="rect3336"
     d="m 5.9730942,8.36765 0.780269,-0.7802 -1.0224215,-1.0225 -0.7802691,0.7803 0,0.3767 0.64574,0 0,0.6457 0.3766816,0 z m 2.9596412,-4.843 q -0.1076233,-0.1076 -0.2219731,0.01 l -2.3542601,2.3543 q -0.1143497,0.1143 -0.00673,0.2219 0.1076233,0.1077 0.2219731,-0.01 l 2.3542601,-2.3542 q 0.1143497,-0.1144 0.00673,-0.222 z m 0.5381166,3.9955 0,1.278 q 0,0.8005 -0.5683856,1.3689 -0.5683857,0.5684 -1.3688341,0.5684 l -5.5964126,0 q -0.8004484,0 -1.36883405,-0.5684 Q 0,9.59865 0,8.79815 l 0,-5.5964 q 0,-0.8004 0.56838565,-1.3688005 0.56838565,-0.5684 1.36883405,-0.5684 l 5.5964126,0 q 0.4237668,0 0.7869955,0.1682 0.1008969,0.047 0.1210762,0.1547 0.020179,0.1143 -0.060538,0.195 L 8.0515696,2.11205 q -0.09417,0.094 -0.2152466,0.054 -0.1547086,-0.04 -0.3026906,-0.04 l -5.5964126,0 q -0.4439462,0 -0.7600897,0.3161 -0.31614345,0.3162 -0.31614345,0.7601 l 0,5.5964 q 0,0.444 0.31614345,0.7601 0.3161435,0.3162 0.7600897,0.3162 l 5.5964126,0 q 0.4439462,0 0.7600897,-0.3162 0.3161435,-0.3161 0.3161435,-0.7601 l 0,-0.8475 q 0,-0.087 0.060538,-0.148 l 0.4304933,-0.4305 q 0.1008968,-0.1009 0.235426,-0.047 0.1345291,0.054 0.1345291,0.1951 z m -0.6457399,-4.9641 1.9372199,1.9372 -4.5201795,4.5202 -1.9372198,0 0,-1.9372 z m 2.9865469,0.8879 -0.618834,0.6188 -1.9372196,-1.9372 0.6188341,-0.6188005 q 0.1883405,-0.1884 0.4573995,-0.1884 0.269058,0 0.457399,0.1884 L 11.811659,2.52915 Q 12,2.71745 12,2.98655 q 0,0.269 -0.188341,0.4574 z" />
</svg>
