<?xml version="1.0" encoding="UTF-8" standalone="no"?>
<svg
   xmlns:dc="http://purl.org/dc/elements/1.1/"
   xmlns:cc="http://creativecommons.org/ns#"
   xmlns:rdf="http://www.w3.org/1999/02/22-rdf-syntax-ns#"
   xmlns:svg="http://www.w3.org/2000/svg"
   xmlns="http://www.w3.org/2000/svg"
   version="1.1"
   id="svg2"
   viewBox="0 0 12 12"
   height="12"
   width="12">
  <defs
     id="defs4" />
  <metadata
     id="metadata7">
    <rdf:RDF>
      <cc:Work
         rdf:about="">
        <dc:format>image/svg+xml</dc:format>
        <dc:type
           rdf:resource="http://purl.org/dc/dcmitype/StillImage" />
        <dc:title></dc:title>
      </cc:Work>
    </rdf:RDF>
  </metadata>
  <g
     transform="translate(-72.088625,-1126.0546)"
     id="layer1" />
  <path
     id="rect3336"
     d="m 0,4.325893 0,5.3169636 q 0,0.4419654 0.31473215,0.7566974 0.31473216,0.314732 0.75669635,0.314732 l 9.8571435,0 q 0.441964,0 0.756696,-0.314732 Q 12,10.084822 12,9.6428566 L 12,4.325893 Q 11.705357,4.654018 11.323661,4.9084823 8.899554,6.5558036 7.9955362,7.2187506 7.6138395,7.5000006 7.3761161,7.6573656 7.138393,7.8147326 6.7433035,7.9787946 6.3482145,8.1428566 6.0066964,8.1428566 l -0.0067,0 -0.0067,0 q -0.3415178,0 -0.7366071,-0.164062 Q 4.8616072,7.8147326 4.623884,7.6573656 4.3861608,7.5000006 4.0044643,7.2187506 2.8660714,6.3950897 0.66964282,4.9084823 0.28794644,4.6473216 0,4.325893 Z M 0,2.3571432 Q 0,2.886161 0.32812501,3.3683039 0.65625,3.8504468 1.1450893,4.1919644 q 2.5178572,1.747768 3.1339287,2.176339 0.066965,0.046875 0.2845982,0.2042412 0.2176339,0.157366 0.3616071,0.254465 0.1439732,0.0971 0.3482143,0.217633 0.2042411,0.120536 0.3850446,0.180804 0.1808036,0.06027 0.3348214,0.06027 l 0.0067,0 0.0067,0 q 0.1540181,0 0.3348215,-0.06027 0.1808034,-0.06027 0.3850446,-0.180804 0.2042347,-0.120535 0.3482079,-0.217633 0.1439737,-0.0971 0.3616075,-0.254465 Q 7.654014,6.4151784 7.7209777,6.3683034 8.3303528,5.9397324 9.4754423,5.1462055 10.620532,4.3526787 10.848211,4.1919644 q 0.415178,-0.2812499 0.783481,-0.7734373 0.368304,-0.4921875 0.368304,-0.9140626 0,-0.5223214 -0.277902,-0.8705357 -0.277897,-0.3482143 -0.793522,-0.3482143 l -9.8571434,0 q -0.43526788,0 -0.75334823,0.3147322 Q 0,1.9151789 0,2.3571432 Z"
     style="fill:#ececec;fill-rule:evenodd;stroke:none;stroke-width:0;stroke-linecap:butt;stroke-linejoin:miter;stroke-miterlimit:4;stroke-dasharray:none;stroke-opacity:1" />
</svg>
