<?xml version="1.0" encoding="UTF-8" standalone="no"?>
<svg
   xmlns:dc="http://purl.org/dc/elements/1.1/"
   xmlns:cc="http://creativecommons.org/ns#"
   xmlns:rdf="http://www.w3.org/1999/02/22-rdf-syntax-ns#"
   xmlns:svg="http://www.w3.org/2000/svg"
   xmlns="http://www.w3.org/2000/svg"
   width="12"
   height="12"
   viewBox="0 0 12 11.999999"
   id="svg2"
   version="1.1">
  <defs
     id="defs4" />
  <metadata
     id="metadata7">
    <rdf:RDF>
      <cc:Work
         rdf:about="">
        <dc:format>image/svg+xml</dc:format>
        <dc:type
           rdf:resource="http://purl.org/dc/dcmitype/StillImage" />
        <dc:title></dc:title>
      </cc:Work>
    </rdf:RDF>
  </metadata>
  <path
     style="fill:#ffffff;stroke:#7f7f7f;stroke-opacity:1;enable-background:new"
     d="m 5.4160584,3.4979502 c -1.7283767,0 -3.1563652,1.413691 -3.1563652,3.1420438 0,0.6569172 0.2221018,1.2612741 0.5706473,1.7674304 L 0.72607828,10.514022 A 0.57378599,0.57442302 0 0 0 1.5285802,11.335239 L 3.6328427,9.2286399 c 0.5063292,0.3490015 1.1258869,0.5534285 1.7832729,0.5534285 1.728434,0 3.1385614,-1.4136909 3.1385614,-3.1420451 0,-1.7283528 -1.4101274,-3.1420451 -3.1385614,-3.1420451 z m 0,1.1425614 c 1.1112791,0 1.9972663,0.8882266 1.9972663,1.9994824 0,1.1111985 -0.8859872,1.9994837 -1.9972663,1.9994837 -1.1112786,0 -1.997266,-0.8882852 -1.997266,-1.9994837 0,-1.1112558 0.8859874,-1.9994824 1.997266,-1.9994824 z"
     id="path4286" />
  <g
     id="layer1"
     transform="translate(-72.088666,-1434.8647)" />
  <path
     style="fill:#37c8ab"
     d="M 2.4755784,7.1463984 C 2.4216002,7.1200703 2.3654624,7.0673255 2.3508289,7.029195 2.3361896,6.9910572 2.3252988,5.4280606 2.3266048,3.5558605 c 0.00217,-3.08797883 0.0092,-3.41152254 0.075712,-3.48503181 0.068255,-0.07541704 0.1885212,-0.08103242 1.7355842,-0.08103242 l 1.6622517,0 0.3336118,0.33585333 0.3336116,0.33585317 2.7663118,0 2.7663123,0 0,3.17247003 c 0,3.1682186 -1.33e-4,3.1725846 -0.09425,3.2577767 -0.09127,0.082608 -0.24036,0.085578 -4.7131402,0.093912 -3.2035025,0.00596 -4.6489647,-0.00605 -4.7170331,-0.039267 z"
     id="path6189" />
  <path
     id="path10"
     d="m 5.4160586,3.4979503 c -1.728377,0 -3.156365,1.413691 -3.156365,3.1420438 0,0.6569172 0.222101,1.2612741 0.570647,1.7674304 L 0.72607862,10.514022 A 0.57378599,0.57442302 0 0 0 1.5285806,11.335239 L 3.6328426,9.22864 c 0.506329,0.3490015 1.125887,0.5534285 1.783273,0.5534285 1.728434,0 3.138561,-1.4136909 3.138561,-3.1420451 0,-1.7283528 -1.410127,-3.1420451 -3.138561,-3.1420451 z m 0,1.1425614 c 1.111279,0 1.997266,0.8882266 1.997266,1.9994824 0,1.1111985 -0.885987,1.9994837 -1.997266,1.9994837 -1.111279,0 -1.997266,-0.8882852 -1.997266,-1.9994837 0,-1.1112558 0.885987,-1.9994824 1.997266,-1.9994824 z"
     style="fill:#ffffff;enable-background:new" />
</svg>
