<?xml version="1.0" encoding="UTF-8" standalone="no"?>
<svg
   xmlns:dc="http://purl.org/dc/elements/1.1/"
   xmlns:cc="http://creativecommons.org/ns#"
   xmlns:rdf="http://www.w3.org/1999/02/22-rdf-syntax-ns#"
   xmlns:svg="http://www.w3.org/2000/svg"
   xmlns="http://www.w3.org/2000/svg"
   version="1.1"
   id="svg2"
   viewBox="0 0 12 11.999999"
   height="12"
   width="12">
  <defs
     id="defs4" />
  <metadata
     id="metadata7">
    <rdf:RDF>
      <cc:Work
         rdf:about="">
        <dc:format>image/svg+xml</dc:format>
        <dc:type
           rdf:resource="http://purl.org/dc/dcmitype/StillImage" />
        <dc:title></dc:title>
      </cc:Work>
    </rdf:RDF>
  </metadata>
  <g
     transform="translate(-72.088666,-1434.8647)"
     id="layer1" />
  <path
     style="fill:#f2f2f2;fill-opacity:1"
     id="rect3336"
     d="m 11.2,6.9999998 0,-5.2000005 q 0,-0.081 -0.05937,-0.1406 -0.05938,-0.0594 -0.14063,-0.0594 l -10,0 q -0.08125,0 -0.140625,0.059 Q 0.8,1.7186993 0.8,1.7999993 l 0,5.2000005 q 0,0.081 0.059375,0.1406 0.059375,0.0594 0.140625,0.0594 l 10,0 q 0.08125,0 0.140625,-0.059 0.05937,-0.059 0.05937,-0.1406 z M 12,1.7999993 12,8.5999998 q 0,0.4125 -0.29375,0.7063 -0.29375,0.2937 -0.70625,0.2937 l -3.4,0 q 0,0.2313 0.1,0.4844002 0.1,0.2531 0.2,0.4437 Q 8,10.7187 8,10.8 8,10.9625 7.88125,11.0813 7.7625,11.2 7.6,11.2 l -3.2,0 Q 4.2375,11.2 4.11875,11.0813 4,10.9625 4,10.8 4,10.712 4.1,10.525 4.2,10.3375 4.3,10.0875 4.4,9.8374998 4.4,9.5999998 l -3.4,0 q -0.4125,0 -0.70625,-0.2937 Q 0,9.0124998 0,8.5999998 L 0,1.7999993 q 0,-0.4125 0.29375,-0.7063 Q 0.5875,0.79999927 1,0.79999927 l 10,0 q 0.4125,0 0.70625,0.29370003 Q 12,1.3874993 12,1.7999993 Z" />
</svg>
