<?xml version="1.0" encoding="UTF-8" standalone="no"?>
<svg
   xmlns:dc="http://purl.org/dc/elements/1.1/"
   xmlns:cc="http://creativecommons.org/ns#"
   xmlns:rdf="http://www.w3.org/1999/02/22-rdf-syntax-ns#"
   xmlns:svg="http://www.w3.org/2000/svg"
   xmlns="http://www.w3.org/2000/svg"
   version="1.1"
   id="svg2"
   viewBox="0 0 12 11.999999"
   height="12"
   width="12">
  <defs
     id="defs4" />
  <metadata
     id="metadata7">
    <rdf:RDF>
      <cc:Work
         rdf:about="">
        <dc:format>image/svg+xml</dc:format>
        <dc:type
           rdf:resource="http://purl.org/dc/dcmitype/StillImage" />
        <dc:title></dc:title>
      </cc:Work>
    </rdf:RDF>
  </metadata>
  <g
     transform="translate(-72.088666,-1434.8647)"
     id="layer1" />
  <path
     style="fill:#ececec;fill-opacity:1"
     id="rect3336"
     d="m 6,4.1250002 2.25,0 0,2.25 -2.25,0 0,-2.25 z m -0.75,3.75 0,0.75 3.75,0 0,-0.75 -3.75,0 z m 0,-4.5 0,3.75 3.75,0 0,-3.75 -3.75,0 z m -3.7500002,4.5 0,0.75 3.0000002,0 0,-0.75 -3.0000002,0 z m 0,-1.5 0,0.75 3.0000002,0 0,-0.75 -3.0000002,0 z m 0,-1.5 0,0.75 3.0000002,0 0,-0.75 -3.0000002,0 z m 0,-1.5 0,0.75 3.0000002,0 0,-0.75 -3.0000002,0 z m 9.0000002,5.625 0,-5.625 0.75,0 0,5.625 q 0,0.1523001 -0.111328,0.2637 -0.111328,0.1113 -0.263672,0.1113 -0.152344,0 -0.263672,-0.1113 Q 10.5,9.1523003 10.5,9.0000003 Z m -9.75000023,0 0,-6.375 9.00000023,0 0,6.375 q 0,0.1934001 0.064453,0.375 l -8.6894532,0 q -0.15234403,0 -0.26367203,-0.1113 -0.111328,-0.1113999 -0.111328,-0.2637 z M -2.25e-7,1.8749998 l 0,7.1250005 q 0,0.4687 0.328124995,0.7969 Q 0.65624977,10.125 1.1249998,10.125 l 9.7500002,0 q 0.46875,0 0.796875,-0.3280997 Q 12,9.4687003 12,9.0000003 l 0,-6.375 -1.5,0 0,-0.7500005 -10.500000225,0 z" />
</svg>
