<?xml version="1.0" encoding="UTF-8" standalone="no"?>
<svg
   xmlns:dc="http://purl.org/dc/elements/1.1/"
   xmlns:cc="http://creativecommons.org/ns#"
   xmlns:rdf="http://www.w3.org/1999/02/22-rdf-syntax-ns#"
   xmlns:svg="http://www.w3.org/2000/svg"
   xmlns="http://www.w3.org/2000/svg"
   width="12"
   height="12"
   viewBox="0 0 12 11.999999"
   id="svg2"
   version="1.1">
  <defs
     id="defs4" />
  <metadata
     id="metadata7">
    <rdf:RDF>
      <cc:Work
         rdf:about="">
        <dc:format>image/svg+xml</dc:format>
        <dc:type
           rdf:resource="http://purl.org/dc/dcmitype/StillImage" />
        <dc:title></dc:title>
      </cc:Work>
    </rdf:RDF>
  </metadata>
  <g
     id="layer1"
     transform="translate(-72.088666,-1434.8647)" />
  <path
     id="rect3336"
     d="M 3.2910156 3.6660156 C 3.1781684 3.6660156 3.0642361 3.703566 2.9492188 3.7773438 C 2.8342013 3.8511215 2.7562933 3.9422812 2.7128906 4.0507812 L 1.1621094 7.6445312 C 1.0536024 7.9093091 1 8.1762014 1 8.4453125 L 1 11.583984 C 1 11.696818 1.0405816 11.794453 1.1230469 11.876953 C 1.2055121 11.959398 1.3031684 12 1.4160156 12 L 10.583984 12 C 10.696832 12 10.794487 11.959398 10.876953 11.876953 C 10.959418 11.794453 11 11.696818 11 11.583984 L 11 8.4453125 C 11 8.1762014 10.946397 7.9093091 10.837891 7.6445312 L 9.6914062 4.9863281 C 9.5185522 4.9701563 9.3375067 4.8960721 9.2207031 4.7792969 C 9.0906577 4.6491807 9 4.4395042 9 4.25 L 9 3.7519531 C 8.9981647 3.7509478 8.9959753 3.7509865 8.9941406 3.75 L 8.625 3.75 C 8.3799505 3.75 8.164238 3.7571694 7.9785156 3.7714844 C 7.7971002 3.7855369 7.6168233 3.811321 7.4375 3.8476562 C 7.2701774 3.88156 7.1347151 3.9261002 7.0332031 3.9746094 C 6.92742 4.0251596 6.8297107 4.0891854 6.734375 4.171875 C 6.6531164 4.2423548 6.5883056 4.3235402 6.5351562 4.4238281 C 6.4803412 4.5272856 6.4304181 4.6649151 6.3925781 4.8378906 C 6.3878609 4.8594544 6.3889377 4.8932754 6.3847656 4.9160156 L 8.3046875 4.9160156 L 9.6855469 8.1464844 C 9.6898835 8.1553737 9.6946585 8.1714238 9.7011719 8.1953125 C 9.7076885 8.2192012 9.7124635 8.237222 9.7167969 8.25 L 7.6601562 8.25 L 7.0410156 9.5 L 4.9589844 9.5 L 4.3398438 8.25 L 2.2832031 8.25 C 2.2875405 8.2411107 2.2923148 8.2250605 2.2988281 8.2011719 C 2.3053388 8.1772832 2.3101131 8.1592624 2.3144531 8.1464844 L 3.6953125 4.9160156 L 4.6171875 4.9160156 C 4.5452024 4.6351813 4.5 4.3718698 4.5 4.125 C 4.5 3.9621908 4.5204127 3.8173974 4.5332031 3.6660156 L 3.2910156 3.6660156 z M 5.5332031 3.6660156 C 5.5171747 3.8109464 5.5 3.9534733 5.5 4.125 C 5.5 4.1528579 5.538698 4.2357764 5.5410156 4.2675781 C 5.5783588 4.1638488 5.6024138 4.0493149 5.6523438 3.9550781 C 5.7064981 3.8528943 5.7686808 3.7558875 5.8398438 3.6660156 L 5.5332031 3.6660156 z "
     style="fill:#4d4d4d;fill-opacity:1" />
  <path
     style="color:#000000;font-style:normal;font-variant:normal;font-weight:normal;font-stretch:normal;font-size:medium;line-height:normal;font-family:sans-serif;text-indent:0;text-align:start;text-decoration:none;text-decoration-line:none;text-decoration-style:solid;text-decoration-color:#000000;letter-spacing:normal;word-spacing:normal;text-transform:none;direction:ltr;block-progression:tb;writing-mode:lr-tb;baseline-shift:baseline;text-anchor:start;white-space:normal;clip-rule:nonzero;display:inline;overflow:visible;visibility:visible;opacity:1;isolation:auto;mix-blend-mode:normal;color-interpolation:sRGB;color-interpolation-filters:linearRGB;solid-color:#000000;solid-opacity:1;fill:#4d4d4d;fill-opacity:1;fill-rule:evenodd;stroke:none;stroke-width:1px;stroke-linecap:butt;stroke-linejoin:miter;stroke-miterlimit:4;stroke-dasharray:none;stroke-dashoffset:0;stroke-opacity:1;color-rendering:auto;image-rendering:auto;shape-rendering:auto;text-rendering:auto;enable-background:accumulate"
     d="m 4.9999977,4.1249856 q 0,0.6484335 0.4960937,1.7617256 0.011716,0.027416 0.041011,0.093742 0.029295,0.066441 0.052733,0.1171918 0.023439,0.05075 0.050779,0.085925 0.046876,0.066441 0.109375,0.066441 0.058594,0 0.091797,-0.039084 0.033204,-0.039084 0.033204,-0.09765 0,-0.035 -0.00976,-0.1034834 -0.00977,-0.068366 -0.00977,-0.091817 -0.01953,-0.26565 -0.01953,-0.4804918 0,-0.3945085 0.068359,-0.7070003 Q 5.9726487,4.4179935 6.0937426,4.1894433 6.2148364,3.9609516 6.4062427,3.7949349 6.597649,3.6289182 6.8183522,3.5234514 7.0390555,3.4179847 7.3378837,3.3574347 q 0.2988283,-0.06055 0.6015628,-0.084 0.3027345,-0.023334 0.6855472,-0.023334 l 0.8750004,0 0,1.0000088 q 0,0.1015584 0.074218,0.1758168 0.074218,0.0742 0.1757812,0.0742 0.1015627,0 0.1757814,-0.0742 L 11.92578,2.4259098 Q 12,2.3515348 12,2.2499764 12,2.148418 11.92578,2.074218 L 9.9257812,0.07419952 Q 9.8515632,-4.7683716e-7 9.75,-4.7683716e-7 q -0.1015626,0 -0.1757813,0.0741999968372 -0.074218,0.0742584 -0.074218,0.17581674 l 0,1.00000974 -0.8750003,0 q -2.7851576,0 -3.4179706,1.574184 -0.2070313,0.5234252 -0.2070313,1.3007756 z"
     id="path4170" />
</svg>
