<?xml version="1.0" encoding="UTF-8" standalone="no"?>
<svg
   xmlns:dc="http://purl.org/dc/elements/1.1/"
   xmlns:cc="http://creativecommons.org/ns#"
   xmlns:rdf="http://www.w3.org/1999/02/22-rdf-syntax-ns#"
   xmlns:svg="http://www.w3.org/2000/svg"
   xmlns="http://www.w3.org/2000/svg"
   version="1.1"
   id="svg2"
   viewBox="0 0 12 11.999999"
   height="12"
   width="12">
  <defs
     id="defs4" />
  <metadata
     id="metadata7">
    <rdf:RDF>
      <cc:Work
         rdf:about="">
        <dc:format>image/svg+xml</dc:format>
        <dc:type
           rdf:resource="http://purl.org/dc/dcmitype/StillImage" />
        <dc:title></dc:title>
      </cc:Work>
    </rdf:RDF>
  </metadata>
  <g
     transform="translate(-72.088666,-1434.8647)"
     id="layer1" />
  <path
     style="fill:#ff6600;fill-opacity:1"
     id="rect3336"
     d="m 3.2723048,10.36305 q 0,0.6817 -0.4772111,1.1589 -0.4772111,0.4773 -1.1589412,0.4773 -0.68173014,0 -1.15894125,-0.4773 Q 1.5207934e-7,11.04475 1.5207934e-7,10.36305 q 0,-0.6817003 0.47721109792066,-1.1589003 0.47721111,-0.4773 1.15894125,-0.4773 0.6817301,0 1.1589412,0.4773 0.4772111,0.4772 0.4772111,1.1589003 z m 4.363073,1.0482 q 0.017043,0.2386 -0.1448677,0.409 -0.1533893,0.179 -0.4005165,0.179 l -1.1504196,0 q -0.2130407,0 -0.3664299,-0.1407 Q 5.4197548,11.71795 5.4027115,11.50495 5.2152357,9.5534497 3.8304714,8.1687497 2.445707,6.7839497 0.49425451,6.5964497 0.28121384,6.5794497 0.14060699,6.4260497 1.5207934e-7,6.2726497 1.5207934e-7,6.0596497 l 0,-1.1504 q 0,-0.2472 0.17895415792066,-0.4006 0.14486766,-0.1448 0.36642996,-0.1448 l 0.0426081,0 q 1.36346023,0.1108 2.60761773,0.686 1.2441575,0.5752 2.2071013,1.5466 0.9714655,0.963 1.5466753,2.2071 0.5752098,1.2442003 0.685991,2.6077003 z m 4.3630732,0.017 q 0.01704,0.2301 -0.15339,0.4005 -0.153389,0.1705 -0.391995,0.1705 l -1.218592,0 q -0.221562,0 -0.3792124,-0.1492 -0.1576501,-0.1491 -0.1661718,-0.3621 -0.1022595,-1.8322003 -0.8606843,-3.4811003 -0.7584248,-1.649 -1.9727566,-2.8633 -1.2143318,-1.2143 -2.8632666,-1.9728 -1.6489348,-0.7584 -3.48108454,-0.8692 -0.21304067,-0.01 -0.36216914,-0.1661 Q 1.5207934e-7,1.9777492 1.5207934e-7,1.7647492 l 0,-1.21860004 q 0,-0.2386 0.17043253792066,-0.392 Q 0.32382197,7.4916553e-4 0.54538427,7.4916553e-4 l 0.0255649,0 Q 2.8036153,0.11154916 4.844545,1.0233492 q 2.0409296,0.9118 3.6259522,2.5054005 1.5935438,1.585 2.5053578,3.6259 0.911814,2.0409 1.022596,4.2736003 z" />
</svg>
