<?xml version="1.0" encoding="UTF-8" standalone="no"?>
<svg
   xmlns:dc="http://purl.org/dc/elements/1.1/"
   xmlns:cc="http://creativecommons.org/ns#"
   xmlns:rdf="http://www.w3.org/1999/02/22-rdf-syntax-ns#"
   xmlns:svg="http://www.w3.org/2000/svg"
   xmlns="http://www.w3.org/2000/svg"
   version="1.1"
   id="svg2"
   viewBox="0 0 12 11.999999"
   height="12"
   width="12">
  <defs
     id="defs4" />
  <metadata
     id="metadata7">
    <rdf:RDF>
      <cc:Work
         rdf:about="">
        <dc:format>image/svg+xml</dc:format>
        <dc:type
           rdf:resource="http://purl.org/dc/dcmitype/StillImage" />
        <dc:title></dc:title>
      </cc:Work>
    </rdf:RDF>
  </metadata>
  <g
     transform="translate(-72.088666,-1434.8647)"
     id="layer1" />
  <path
     style="fill:#c83737;fill-opacity:1"
     id="rect3336"
     d="m 4.5,4.75 0,4.5 Q 4.5,9.3594 4.429688,9.4297 4.359375,9.5 4.25,9.5 l -0.5,0 Q 3.640625,9.5 3.5703125,9.43 3.5,9.3594 3.5,9.25 l 0,-4.5 q 0,-0.1094 0.070312,-0.1797 0.070312,-0.07 0.1796875,-0.07 l 0.5,0 q 0.109375,0 0.1796875,0.07 Q 4.5,4.6406 4.5,4.75 Z m 2,0 0,4.5 Q 6.5,9.3594 6.429688,9.4297 6.359375,9.5 6.25,9.5 l -0.5,0 Q 5.640625,9.5 5.5703125,9.43 5.5,9.3594 5.5,9.25 l 0,-4.5 q 0,-0.1094 0.070312,-0.1797 0.070312,-0.07 0.1796875,-0.07 l 0.5,0 q 0.109375,0 0.1796875,0.07 Q 6.5,4.6406 6.5,4.75 Z m 2,0 0,4.5 Q 8.5,9.3594 8.429688,9.4297 8.359375,9.5 8.25,9.5 l -0.5,0 Q 7.640625,9.5 7.5703125,9.43 7.5,9.3594 7.5,9.25 l 0,-4.5 q 0,-0.1094 0.070312,-0.1797 0.070312,-0.07 0.1796875,-0.07 l 0.5,0 q 0.109375,0 0.1796875,0.07 Q 8.5,4.6406 8.5,4.75 Z m 1,5.6562 0,-7.4062 -7,0 0,7.4062 q 0,0.1719 0.054687,0.3165 0.054687,0.1445 0.1132813,0.2109 Q 2.7265623,11 2.7500003,11 l 6.5,0 q 0.023437,0 0.082031,-0.066 0.058594,-0.066 0.1132812,-0.2109 Q 9.5,10.5781 9.5,10.4062 Z M 4.25,2 7.75,2 7.375,1.0858995 q -0.054687,-0.07 -0.1328125,-0.086 l -2.4765625,0 q -0.078125,0.016 -0.1328125,0.086 z m 7.25,0.25 0,0.5 q 0,0.1094 -0.07031,0.1797 Q 11.35937,3 11.25,3 l -0.75,0 0,7.4062 q 0,0.6485 -0.367187,1.1211 Q 9.765625,12 9.25,12 l -6.5,0 Q 2.234375,12 1.8671875,11.543 1.5,11.0859 1.5,10.4375 L 1.5,3 0.75,3 Q 0.640625,3 0.5703125,2.93 0.5,2.8594 0.5,2.75 l 0,-0.5 Q 0.5,2.1406 0.5703125,2.0703 0.640625,2 0.75,2 l 2.4140625,0 0.546875,-1.30470048 q 0.1171875,-0.2891 0.421875,-0.4922 Q 4.4375,-4.7683716e-7 4.75,-4.7683716e-7 l 2.5,0 q 0.3125,0 0.6171875,0.20309999683716 0.3046875,0.2031 0.421875,0.4922 L 8.8359375,2 11.25,2 q 0.109375,0 0.179688,0.07 0.07031,0.071 0.07031,0.18 z" />
</svg>
