<?xml version="1.0" encoding="UTF-8" standalone="no"?>
<svg
   xmlns:dc="http://purl.org/dc/elements/1.1/"
   xmlns:cc="http://creativecommons.org/ns#"
   xmlns:rdf="http://www.w3.org/1999/02/22-rdf-syntax-ns#"
   xmlns:svg="http://www.w3.org/2000/svg"
   xmlns="http://www.w3.org/2000/svg"
   xmlns:sodipodi="http://sodipodi.sourceforge.net/DTD/sodipodi-0.dtd"
   xmlns:inkscape="http://www.inkscape.org/namespaces/inkscape"
   viewBox="0 0 12 12"
   enable-background="new 0 0 50 50"
   id="svg2"
   version="1.1"
   inkscape:version="0.91 r13725"
   sodipodi:docname="paperclip.svg"
   width="12"
   height="12">
  <metadata
     id="metadata10">
    <rdf:RDF>
      <cc:Work
         rdf:about="">
        <dc:format>image/svg+xml</dc:format>
        <dc:type
           rdf:resource="http://purl.org/dc/dcmitype/StillImage" />
        <dc:title></dc:title>
      </cc:Work>
    </rdf:RDF>
  </metadata>
  <defs
     id="defs8" />
  <sodipodi:namedview
     pagecolor="#ffffff"
     bordercolor="#666666"
     borderopacity="1"
     objecttolerance="10"
     gridtolerance="10"
     guidetolerance="10"
     inkscape:pageopacity="0"
     inkscape:pageshadow="2"
     inkscape:window-width="1440"
     inkscape:window-height="873"
     id="namedview6"
     showgrid="false"
     inkscape:zoom="4.72"
     inkscape:cx="24.788136"
     inkscape:cy="25"
     inkscape:window-x="0"
     inkscape:window-y="27"
     inkscape:window-maximized="1"
     inkscape:current-layer="svg2" />
  <path
     d="m 2.1978359,11.494591 c -0.5564141,0 -1.1499226,-0.222566 -1.55795964,-0.667697 -0.8531685,-0.8531694 -0.8531685,-2.2627514 0,-3.1530144 L 6.9459039,1.3678516 c 1.149923,-1.14992297 3.041731,-1.14992297 4.1916541,0 1.149923,1.149923 1.149923,3.041731 0,4.191654 L 6.3894899,10.307574 5.8701699,9.7882536 10.581144,5.0772796 c 0.853168,-0.853168 0.853168,-2.262751 0,-3.153014 -0.8531691,-0.853168 -2.2627511,-0.853168 -3.1530141,0 l -6.306028,6.306028 c -0.29675424,0.296754 -0.44513144,0.667697 -0.44513144,1.03864 0,0.408037 0.1483772,0.7789804 0.44513144,1.0386404 0.5935085,0.593508 1.520866,0.593508 2.114374,0 l 4.710974,-4.7109744 c 0.296754,-0.296754 0.296754,-0.741885 0,-1.03864 -0.296754,-0.296754 -0.741886,-0.296754 -1.03864,0 l -3.153014,3.11592 -0.51932,-0.51932 3.153014,-3.153014 c 0.593508,-0.593508 1.520865,-0.593508 2.114374,0 0.593508,0.593509 0.593508,1.520866 0,2.114374 l -4.748068,4.7109744 c -0.408037,0.445131 -1.001546,0.667697 -1.55796,0.667697 z"
     id="path4"
     style="fill:#999999;" />
</svg>
