<?xml version="1.0" encoding="UTF-8" standalone="no"?>
<svg
   xmlns:dc="http://purl.org/dc/elements/1.1/"
   xmlns:cc="http://creativecommons.org/ns#"
   xmlns:rdf="http://www.w3.org/1999/02/22-rdf-syntax-ns#"
   xmlns:svg="http://www.w3.org/2000/svg"
   xmlns="http://www.w3.org/2000/svg"
   version="1.1"
   id="svg2"
   viewBox="0 0 12 11.999999"
   height="12"
   width="12">
  <defs
     id="defs4" />
  <metadata
     id="metadata7">
    <rdf:RDF>
      <cc:Work
         rdf:about="">
        <dc:format>image/svg+xml</dc:format>
        <dc:type
           rdf:resource="http://purl.org/dc/dcmitype/StillImage" />
        <dc:title></dc:title>
      </cc:Work>
    </rdf:RDF>
  </metadata>
  <g
     transform="translate(-72.088666,-1434.8647)"
     id="layer1" />
  <path
     style="color:#000000;font-style:normal;font-variant:normal;font-weight:normal;font-stretch:normal;font-size:medium;line-height:normal;font-family:sans-serif;text-indent:0;text-align:start;text-decoration:none;text-decoration-line:none;text-decoration-style:solid;text-decoration-color:#000000;letter-spacing:normal;word-spacing:normal;text-transform:none;direction:ltr;block-progression:tb;writing-mode:lr-tb;baseline-shift:baseline;text-anchor:start;white-space:normal;clip-rule:nonzero;display:inline;overflow:visible;visibility:visible;opacity:1;isolation:auto;mix-blend-mode:normal;color-interpolation:sRGB;color-interpolation-filters:linearRGB;solid-color:#000000;solid-opacity:1;fill:#4d4d4d;fill-opacity:1;fill-rule:evenodd;stroke:none;stroke-width:1px;stroke-linecap:butt;stroke-linejoin:miter;stroke-miterlimit:4;stroke-dasharray:none;stroke-dashoffset:0;stroke-opacity:1;color-rendering:auto;image-rendering:auto;shape-rendering:auto;text-rendering:auto;enable-background:accumulate"
     d="m 12,4.2857493 q 0,-1.1116 -0.850446,-3.0201 -0.02009,-0.047 -0.07031,-0.1607 -0.05022,-0.11390003 -0.0904,-0.20090003 -0.04018,-0.087 -0.08705,-0.1473 -0.08036,-0.1139 -0.1875,-0.1139 -0.100447,0 -0.157366,0.067 -0.05692,0.067 -0.05692,0.1674 0,0.06 0.01674,0.17740003 0.01674,0.1172 0.01674,0.1574 0.03348,0.4554 0.03348,0.8237 0,0.6763 -0.117187,1.212 -0.117188,0.5357 -0.324777,0.9275 -0.2075893,0.3917 -0.5357143,0.6763 -0.328125,0.2846 -0.7064732,0.4654 -0.3783482,0.1808 -0.890625,0.2846 -0.5122768,0.1038 -1.03125,0.144 -0.5189732,0.04 -1.1752232,0.04 l -1.5,0 0,-1.7143 q 0,-0.1741 -0.1272322,-0.3014 -0.1272321,-0.1272 -0.3013392,-0.1272 -0.1741072,0 -0.3013393,0.1272 l -3.42857146,3.4286 Q 0,7.3259493 0,7.5000493 q 0,0.1741 0.12723214,0.3013 L 3.5558036,11.22995 q 0.1272321,0.1272 0.3013393,0.1272 0.1741071,0 0.3013392,-0.1272 0.1272322,-0.1273 0.1272322,-0.3014 l 0,-1.7143007 1.5,0 q 4.7745537,0 5.8593747,-2.6986 Q 12,5.6183493 12,4.2857493 Z"
     id="path4170" />
</svg>
