<?xml version="1.0" encoding="UTF-8" standalone="no"?>
<svg
   xmlns:dc="http://purl.org/dc/elements/1.1/"
   xmlns:cc="http://creativecommons.org/ns#"
   xmlns:rdf="http://www.w3.org/1999/02/22-rdf-syntax-ns#"
   xmlns:svg="http://www.w3.org/2000/svg"
   xmlns="http://www.w3.org/2000/svg"
   version="1.1"
   id="svg2"
   viewBox="0 0 12 11.999999"
   height="12"
   width="12">
  <defs
     id="defs4" />
  <metadata
     id="metadata7">
    <rdf:RDF>
      <cc:Work
         rdf:about="">
        <dc:format>image/svg+xml</dc:format>
        <dc:type
           rdf:resource="http://purl.org/dc/dcmitype/StillImage" />
        <dc:title></dc:title>
      </cc:Work>
    </rdf:RDF>
  </metadata>
  <g
     transform="translate(-72.088666,-1434.8647)"
     id="layer1" />
  <path
     style="fill:#999999"
     id="rect3336"
     d="M 8.1995192,7.2869998 10.40625,5.1451998 7.3629808,4.6980998 6,1.9432993 4.6370192,4.6980998 1.59375,5.1451998 3.8004808,7.2869998 3.2740385,10.3231 6,8.8879998 8.71875,10.3231 Z M 12,4.7124998 q 0,0.1586 -0.1875,0.3461 l -2.6177885,2.5529 0.6201923,3.6058002 q 0.00721,0.05 0.00721,0.1442 0,0.3606 -0.2956731,0.3606 -0.1370192,0 -0.2884615,-0.087 L 6,9.9335998 2.7620192,11.6356 q -0.1586538,0.087 -0.2884615,0.087 -0.1514423,0 -0.2271635,-0.1046 -0.075721,-0.1045 -0.075721,-0.256 0,-0.043 0.014423,-0.1442 L 2.8052885,7.6119998 0.18028846,5.0590998 Q 0,4.8638998 0,4.7124998 q 0,-0.2668 0.40384615,-0.3317 l 3.62019235,-0.5265 1.6225961,-3.28120052 q 0.1370192,-0.2957 0.3533654,-0.2957 0.2163462,0 0.3533654,0.2957 l 1.6225961,3.28120052 3.6201925,0.5265 Q 12,4.4456998 12,4.7124998 Z" />
</svg>
